<?xml version="1.0" encoding="utf-8"?>
<!-- Generator: Adobe Illustrator 16.0.0, SVG Export Plug-In . SVG Version: 6.00 Build 0)  -->
<!DOCTYPE svg PUBLIC "-//W3C//DTD SVG 1.0//EN" "http://www.w3.org/TR/2001/REC-SVG-20010904/DTD/svg10.dtd">
<svg version="1.0" id="Layer_1" xmlns="http://www.w3.org/2000/svg" xmlns:xlink="http://www.w3.org/1999/xlink" x="0px" y="0px"
	 width="30px" height="24px" viewBox="-1 -1 30 24" enable-background="new -1 -1 30 24" xml:space="preserve">
<g opacity="0.5">
	<path d="M16.936,21.5h-5.872C5.242,21.5,0.505,16.79,0.505,11c0-5.789,4.736-10.5,10.559-10.5h5.872
		c5.822,0,10.56,4.711,10.56,10.5C27.494,16.79,22.758,21.5,16.936,21.5z"/>
</g>
<g>
	<g>
		<path fill="#82B600" d="M16.936,1h-5.872C5.508,1,1.005,5.477,1.005,11c0,5.523,4.503,10,10.059,10h5.872
			c5.558,0,10.06-4.477,10.06-10C26.994,5.477,22.492,1,16.936,1z"/>
	</g>
</g>
<path fill="#FFFFFF" d="M16.486,15.678C15.824,15.883,14.852,16,14.045,16c-2.928,0-5.177-2.178-5.177-5.029
	C8.869,8.105,11.045,6,14,6c0.691,0,1.5,0.088,2.014,0.22c0.428,0.116,0.648,0.219,1.18,0.512l-0.457,0.994
	C16.5,7.593,16.34,7.52,16.221,7.462c-0.559-0.234-1.322-0.381-2.103-0.381c-1.368,0-2.249,0.365-3,1.229
	c-0.602,0.701-0.955,1.623-0.955,2.573c0,2.324,1.794,4.035,4.221,4.035c0.485,0,0.824-0.043,1.603-0.203v-3.217h1.207v3.947
	C16.883,15.561,16.646,15.635,16.486,15.678z"/>
</svg>
