<?xml version="1.0" encoding="utf-8"?>
<!-- Generator: Adobe Illustrator 16.0.0, SVG Export Plug-In . SVG Version: 6.00 Build 0)  -->
<!DOCTYPE svg PUBLIC "-//W3C//DTD SVG 1.0//EN" "http://www.w3.org/TR/2001/REC-SVG-20010904/DTD/svg10.dtd">
<svg version="1.0" id="Layer_1" xmlns="http://www.w3.org/2000/svg" xmlns:xlink="http://www.w3.org/1999/xlink" x="0px" y="0px"
	 width="20px" height="24px" viewBox="0 0 20 24" enable-background="new 0 0 20 24" xml:space="preserve">
<path fill="#FFFFFF" d="M15.9,13.735c-0.292-0.461-1.281-0.558-2.059-0.558c-0.406,0-0.876,0.029-1.385,0.086
	c-0.356-0.202-0.701-0.429-1.01-0.675c-0.791-0.649-1.377-1.752-1.748-2.858C9.84,8.921,9.858,8.209,9.87,7.483l0.007-0.355
	c0-0.036-0.015-0.067-0.035-0.094C9.875,7.01,9.898,6.977,9.906,6.935c0.069-0.363,0.039-0.616-0.092-0.773
	c-0.132-0.16-0.307-0.159-0.402-0.16L9.175,6c-0.217,0-0.39,0.164-0.463,0.438C8.504,7.208,8.606,8.505,8.999,9.803
	c-0.248,0.861-0.625,1.9-1.236,3.131c-1.386,2.791-2.447,4.331-3.167,4.554c0.126-0.393,0.757-1.299,1.775-2.06
	c0.069-0.052,0.087-0.147,0.041-0.22c-0.047-0.073-0.141-0.098-0.216-0.057c-1.452,0.771-2.091,1.668-2.199,2.201
	c-0.026,0.135-0.009,0.24,0.031,0.324c0.003,0.012,0.007,0.021,0.013,0.031c0.006,0.011,0.007,0.025,0.014,0.035
	c0.015,0.018,0.032,0.031,0.052,0.041h0v0.001c0,0,0,0.001,0,0.001l0.015,0.007l0.277,0.142C4.496,17.984,4.6,18.01,4.709,18.01h0
	c0.694,0,1.622-1.011,2.821-3.076c1.295-0.461,3.065-0.833,4.679-0.998c1.03,0.545,2.152,0.865,2.873,0.865
	c0.598,0,0.762-0.225,0.793-0.414c0.002-0.012-0.002-0.021-0.003-0.033c0.016-0.014,0.034-0.023,0.044-0.044
	C16.039,14.047,15.976,13.853,15.9,13.735z M15.565,14.141c0.032,0.035,0.038,0.061,0.036,0.083
	c-0.05,0.018-0.123,0.034-0.256,0.034c-0.396,0-1.001-0.152-1.657-0.41c0.058,0,0.122-0.005,0.179-0.005
	C15.184,13.843,15.5,14.07,15.565,14.141z M8.396,13.35c0.489-0.94,0.803-1.73,1.019-2.436c0.379,0.848,0.888,1.629,1.527,2.18
	c0.136,0.117,0.281,0.226,0.431,0.332c-1.138,0.202-2.38,0.535-3.56,1.01C8.001,14.098,8.196,13.736,8.396,13.35z M9.327,6.539
	c0.012-0.035,0.031-0.072,0.05-0.105c0.085,0.082,0.175,0.228,0.203,0.487c0.003,0.028,0.02,0.049,0.035,0.07
	C9.583,7.015,9.56,7.049,9.551,7.092C9.523,7.229,9.499,7.396,9.468,7.596C9.438,7.803,9.397,8.057,9.345,8.341
	C9.211,7.574,9.201,6.909,9.327,6.539z"/>
<path fill="#FFFFFF" d="M15,1H1v22h18V5L15,1z M2,22V2l12,0v4h4v16H2z"/>
</svg>
