<?xml version="1.0" encoding="utf-8"?>
<!-- Generator: Adobe Illustrator 16.0.0, SVG Export Plug-In . SVG Version: 6.00 Build 0)  -->
<!DOCTYPE svg PUBLIC "-//W3C//DTD SVG 1.0//EN" "http://www.w3.org/TR/2001/REC-SVG-20010904/DTD/svg10.dtd">
<svg version="1.0" id="Layer_1" xmlns="http://www.w3.org/2000/svg" xmlns:xlink="http://www.w3.org/1999/xlink" x="0px" y="0px"
	 width="26px" height="26px" viewBox="0 0 26 26" enable-background="new 0 0 26 26" xml:space="preserve">
<g>
	<g>
		<path fill="#FFFFFF" d="M13.27,14.156c-0.438-0.328-1.389-1-1.389-1.452c0-0.529,0.15-0.789,0.947-1.412
			c0.815-0.637,1.393-1.477,1.393-2.519c0-1.137-0.464-2.166-1.338-2.666h1.238L15.175,5c0,0-3.482,0-4.716,0
			C8.066,5,6.071,6.765,6.071,8.708c0,1.982,1.31,3.564,3.562,3.564c0.156,0,0.309-0.01,0.457-0.02
			c-0.146,0.279-0.25,0.592-0.25,0.92c0,0.551,0.303,0.866,0.678,1.229c-0.283,0-0.557,0.008-0.855,0.008
			c-2.74,0-4.658,1.887-4.658,3.695C5.003,19.887,7.316,21,10.056,21c3.124,0,5.044-1.771,5.044-3.555
			C15.101,16.017,14.792,15.299,13.27,14.156z M7.846,8.676C7.625,7.008,8.478,5.731,9.749,5.767
			c1.271,0.04,2.358,1.408,2.577,3.076c0.219,1.67-0.512,2.744-1.782,2.708C9.272,11.512,8.064,10.346,7.846,8.676z M10.045,20.212
			c-1.893,0-3.262-1.199-3.262-2.638c0-1.412,1.605-2.629,3.5-2.607c0.441,0.004,0.854,0.073,1.227,0.195
			c1.029,0.714,1.857,1.162,2.066,1.977c0.039,0.164,0.061,0.334,0.061,0.509C13.637,19.088,12.709,20.212,10.045,20.212z"/>
	</g>
	<polygon fill="#FFFFFF" points="20.996,7 18.996,7 18.996,5 17.663,5 17.663,7 15.663,7 15.663,8.333 17.663,8.333 17.663,10.333 
		18.996,10.333 18.996,8.333 20.996,8.333 	"/>
</g>
</svg>
