<?xml version="1.0" encoding="utf-8"?>
<!-- Generator: Adobe Illustrator 16.0.0, SVG Export Plug-In . SVG Version: 6.00 Build 0)  -->
<!DOCTYPE svg PUBLIC "-//W3C//DTD SVG 1.0//EN" "http://www.w3.org/TR/2001/REC-SVG-20010904/DTD/svg10.dtd">
<svg version="1.0" id="Layer_1" xmlns="http://www.w3.org/2000/svg" xmlns:xlink="http://www.w3.org/1999/xlink" x="0px" y="0px"
	 width="26px" height="26px" viewBox="0 0 26 26" enable-background="new 0 0 26 26" xml:space="preserve">
<path fill="#FFFFFF" d="M19.362,9.737c0.008,0.141,0.01,0.281,0.01,0.424c0,4.337-3.302,9.339-9.339,9.339
	c-1.854,0-3.579-0.543-5.033-1.475c0.258,0.029,0.518,0.045,0.783,0.045c1.54,0,2.954-0.523,4.076-1.404
	C8.424,16.64,7.21,15.69,6.794,14.388c0.2,0.037,0.405,0.059,0.618,0.059c0.299,0,0.59-0.041,0.864-0.115
	c-1.5-0.303-2.633-1.629-2.633-3.219c0-0.014,0-0.027,0-0.041c0.443,0.246,0.95,0.393,1.487,0.41
	c-0.881-0.588-1.46-1.594-1.46-2.733c0-0.601,0.162-1.166,0.445-1.651c1.618,1.987,4.038,3.294,6.765,3.431
	c-0.056-0.24-0.085-0.49-0.085-0.748c0-1.812,1.47-3.281,3.284-3.281c0.943,0,1.797,0.399,2.396,1.035
	c0.747-0.146,1.45-0.42,2.085-0.796c-0.246,0.767-0.766,1.41-1.443,1.817C19.779,8.475,20.412,8.298,21,8.038
	C20.561,8.696,20.004,9.275,19.362,9.737z"/>
</svg>
