<?xml version="1.0" encoding="utf-8"?>
<!-- Generator: Adobe Illustrator 16.0.0, SVG Export Plug-In . SVG Version: 6.00 Build 0)  -->
<!DOCTYPE svg PUBLIC "-//W3C//DTD SVG 1.0//EN" "http://www.w3.org/TR/2001/REC-SVG-20010904/DTD/svg10.dtd">
<svg version="1.0" id="Layer_1" xmlns="http://www.w3.org/2000/svg" xmlns:xlink="http://www.w3.org/1999/xlink" x="0px" y="0px"
	 width="50px" height="50px" viewBox="0 0 50 50" enable-background="new 0 0 50 50" xml:space="preserve">
<g>
	<path fill="#7D7B7C" d="M20.128,14.151c-1.905-0.056-3.186,1.86-2.854,4.362c0.328,2.505,2.14,4.254,4.048,4.312
		c1.905,0.056,3.001-1.556,2.673-4.061C23.666,16.264,22.034,14.21,20.128,14.151z"/>
	<path fill="#7D7B7C" d="M20.93,27.95c-2.842-0.032-5.249,1.793-5.249,3.911c0,2.159,2.053,3.958,4.893,3.958
		c3.995,0,5.387-1.688,5.387-3.85c0-0.261-0.032-0.516-0.091-0.762c-0.313-1.222-1.556-1.893-3.1-2.965
		C22.21,28.062,21.592,27.956,20.93,27.95z"/>
	<path fill="#7D7B7C" d="M25,1C11.745,1,1,11.745,1,25s10.745,24,24,24s24-10.745,24-24S38.255,1,25,1z M26.836,18.66
		c0,1.564-0.866,2.824-2.089,3.779c-1.195,0.935-1.421,1.324-1.421,2.118c0,0.677,1.427,1.685,2.083,2.177
		c2.283,1.714,2.746,2.792,2.746,4.934c0,2.675-2.881,5.332-7.565,5.332c-4.11,0-7.579-1.67-7.579-4.345
		c0-2.713,2.877-5.543,6.987-5.543c0.448,0,0.858-0.012,1.283-0.012c-0.562-0.545-1.017-1.017-1.017-1.843
		c0-0.492,0.155-0.961,0.375-1.38c-0.223,0.015-0.451,0.029-0.686,0.029c-3.377,0-5.342-2.373-5.342-5.347
		c0-2.912,2.992-5.561,6.581-5.561c1.851,0,7.073,0,7.073,0l-1.58,1.661h-1.857C26.14,15.411,26.836,16.955,26.836,18.66z M37,18h-3
		v3h-2v-3h-3v-2h3v-3h2v3h3V18z"/>
</g>
</svg>
