<?xml version="1.0" encoding="utf-8"?>
<!-- Generator: Adobe Illustrator 16.0.0, SVG Export Plug-In . SVG Version: 6.00 Build 0)  -->
<!DOCTYPE svg PUBLIC "-//W3C//DTD SVG 1.0//EN" "http://www.w3.org/TR/2001/REC-SVG-20010904/DTD/svg10.dtd">
<svg version="1.0" id="Layer_1" xmlns="http://www.w3.org/2000/svg" xmlns:xlink="http://www.w3.org/1999/xlink" x="0px" y="0px"
	 width="50px" height="50px" viewBox="0 0 50 50" enable-background="new 0 0 50 50" xml:space="preserve">
<path fill="#7D7B7C" d="M25,1C11.746,1,1,11.746,1,25c0,13.257,10.746,24,24,24c13.256,0,24-10.743,24-24C49,11.746,38.256,1,25,1z
	 M30.142,25.009h-3.363c0,5.373,0,11.991,0,11.991h-4.983c0,0,0-6.551,0-11.991h-2.37v-4.236h2.37V18.03
	c0-1.963,0.932-5.03,5.029-5.03l3.691,0.015v4.113c0,0-2.244,0-2.68,0c-0.437,0-1.058,0.217-1.058,1.154v2.49h3.8L30.142,25.009z"/>
</svg>
