<?xml version="1.0" encoding="utf-8"?>
<!-- Generator: Adobe Illustrator 16.0.0, SVG Export Plug-In . SVG Version: 6.00 Build 0)  -->
<!DOCTYPE svg PUBLIC "-//W3C//DTD SVG 1.0//EN" "http://www.w3.org/TR/2001/REC-SVG-20010904/DTD/svg10.dtd">
<svg version="1.0" id="Layer_1" xmlns="http://www.w3.org/2000/svg" xmlns:xlink="http://www.w3.org/1999/xlink" x="0px" y="0px"
	 width="50px" height="50px" viewBox="0 0 50 50" enable-background="new 0 0 50 50" xml:space="preserve">
<path fill="#7D7B7C" d="M25,1C11.746,1,1,11.746,1,25c0,13.257,10.746,24,24,24s24-10.743,24-24C49,11.746,38.254,1,25,1z
	 M34.543,20.107c0.011,0.211,0.016,0.422,0.016,0.636c0,6.507-4.953,14.01-14.01,14.01c-2.782,0-5.369-0.814-7.549-2.212
	c0.387,0.044,0.777,0.067,1.175,0.067c2.309,0,4.43-0.785,6.114-2.106c-2.153-0.041-3.973-1.465-4.598-3.419
	c0.3,0.056,0.607,0.088,0.926,0.088c0.449,0,0.885-0.062,1.296-0.173c-2.25-0.454-3.949-2.443-3.949-4.828c0-0.021,0-0.041,0-0.062
	c0.665,0.369,1.424,0.589,2.231,0.615c-1.322-0.882-2.19-2.391-2.19-4.099c0-0.902,0.243-1.749,0.667-2.476
	c2.427,2.979,6.057,4.939,10.148,5.145c-0.084-0.36-0.128-0.735-0.128-1.122c0-2.719,2.204-4.922,4.925-4.922
	c1.415,0,2.695,0.598,3.594,1.553c1.12-0.22,2.175-0.63,3.127-1.195c-0.369,1.151-1.148,2.115-2.165,2.725
	c0.996-0.117,1.945-0.384,2.827-0.773C36.341,18.546,35.506,19.413,34.543,20.107z"/>
</svg>
